{
  "accessors": [
    {
      "bufferView": 2,
      "componentType": 5126,
      "count": 466,
      "max": [
        6.153193473815918,
        7.314451694488525,
        3.713517427444458
      ],
      "min": [
        -4.175622940063477,
        -5.177296161651611,
        -7.903872489929199
      ],
      "type": "VEC3"
    },
    {
      "bufferView": 2,
      "byteOffset": 5592,
      "componentType": 5126,
      "count": 466,
      "max": [
        0.9872929453849792,
        1.0,
        0.9987631440162659
      ],
      "min": [
        -0.9684354066848755,
        -0.9991618394851685,
        -0.9997000694274902
      ],
      "type": "VEC3"
    },
    {
      "bufferView": 1,
      "componentType": 5126,
      "count": 466,
      "max": [
        1.0,
        1.0
      ],
      "min": [
        0.0,
        -8.940696716308594e-08
      ],
      "type": "VEC2"
    },
    {
      "bufferView": 0,
      "componentType": 5125,
      "count": 618,
      "type": "SCALAR"
    },
    {
      "bufferView": 2,
      "byteOffset": 11184,
      "componentType": 5126,
      "count": 38,
      "max": [
        0.35636240243911743,
        0.35112643241882324,
        1.4546828269958496
      ],
      "min": [
        -0.8607324957847595,
        -0.8659683465957642,
        0.4006477892398834
      ],
      "type": "VEC3"
    },
    {
      "bufferView": 2,
      "byteOffset": 11640,
      "componentType": 5126,
      "count": 38,
      "max": [
        0.8660255074501038,
        1.0,
        1.0
      ],
      "min": [
        -0.8660255670547485,
        -1.0,
        -1.0
      ],
      "type": "VEC3"
    },
    {
      "bufferView": 1,
      "byteOffset": 3728,
      "componentType": 5126,
      "count": 38,
      "max": [
        0.65625,
        0.9790664911270142
      ],
      "min": [
        0.34375,
        0.02093350887298584
      ],
      "type": "VEC2"
    },
    {
      "bufferView": 0,
      "byteOffset": 2472,
      "componentType": 5125,
      "count": 72,
      "type": "SCALAR"
    },
    {
      "bufferView": 2,
      "byteOffset": 12096,
      "componentType": 5126,
      "count": 38,
      "max": [
        0.7586885690689087,
        0.35112643241882324,
        0.06981673836708069
      ],
      "min": [
        -0.45840612053871155,
        -0.8659683465957642,
        -0.9842183589935303
      ],
      "type": "VEC3"
    },
    {
      "bufferView": 2,
      "byteOffset": 12552,
      "componentType": 5126,
      "count": 38,
      "max": [
        0.8660255074501038,
        1.0,
        1.0
      ],
      "min": [
        -0.8660255074501038,
        -1.0,
        -1.0
      ],
      "type": "VEC3"
    },
    {
      "bufferView": 1,
      "byteOffset": 4032,
      "componentType": 5126,
      "count": 38,
      "max": [
        0.65625,
        0.9790664911270142
      ],
      "min": [
        0.34375,
        0.02093350887298584
      ],
      "type": "VEC2"
    },
    {
      "bufferView": 0,
      "byteOffset": 2760,
      "componentType": 5125,
      "count": 72,
      "type": "SCALAR"
    },
    {
      "bufferView": 2,
      "byteOffset": 13008,
      "componentType": 5126,
      "count": 38,
      "max": [
        1.5737322568893433,
        0.27209216356277466,
        -1.6768720149993896
      ],
      "min": [
        0.3566374182701111,
        -1.098979115486145,
        -2.913297653198242
      ],
      "type": "VEC3"
    },
    {
      "bufferView": 2,
      "byteOffset": 13464,
      "componentType": 5126,
      "count": 38,
      "max": [
        0.8660255074501038,
        0.9869250059127808,
        0.9869248867034912
      ],
      "min": [
        -0.8660255670547485,
        -0.9869250059127808,
        -0.9869248867034912
      ],
      "type": "VEC3"
    },
    {
      "bufferView": 1,
      "byteOffset": 4336,
      "componentType": 5126,
      "count": 38,
      "max": [
        0.65625,
        0.9790664911270142
      ],
      "min": [
        0.34375,
        0.02093350887298584
      ],
      "type": "VEC2"
    },
    {
      "bufferView": 0,
      "byteOffset": 3048,
      "componentType": 5125,
      "count": 72,
      "type": "SCALAR"
    },
    {
      "bufferView": 2,
      "byteOffset": 13920,
      "componentType": 5126,
      "count": 103,
      "max": [
        2.4733662605285645,
        1.0989656448364258,
        1.5648378133773804
      ],
      "min": [
        1.1085436344146729,
        0.14834600687026978,
        0.3828665614128113
      ],
      "type": "VEC3"
    },
    {
      "bufferView": 2,
      "byteOffset": 15156,
      "componentType": 5126,
      "count": 103,
      "max": [
        0.8660255074501038,
        1.0,
        1.0
      ],
      "min": [
        -0.8660255074501038,
        -0.9621664881706238,
        -1.0
      ],
      "type": "VEC3"
    },
    {
      "bufferView": 1,
      "byteOffset": 4640,
      "componentType": 5126,
      "count": 103,
      "max": [
        0.65625,
        0.9790664911270142
      ],
      "min": [
        0.34375,
        0.3125
      ],
      "type": "VEC2"
    },
    {
      "bufferView": 0,
      "byteOffset": 3336,
      "componentType": 5125,
      "count": 162,
      "type": "SCALAR"
    },
    {
      "bufferView": 2,
      "byteOffset": 16392,
      "componentType": 5126,
      "count": 54,
      "max": [
        2.1616873741149902,
        -0.946653425693512,
        2.9101712703704834
      ],
      "min": [
        -0.1694791316986084,
        -3.3559513092041016,
        0.6440088748931885
      ],
      "type": "VEC3"
    },
    {
      "bufferView": 2,
      "byteOffset": 17040,
      "componentType": 5126,
      "count": 54,
      "max": [
        1.0,
        0.8774487972259521,
        0.9032794237136841
      ],
      "min": [
        -1.0,
        -0.8774486780166626,
        -0.9977795481681824
      ],
      "type": "VEC3"
    },
    {
      "bufferView": 1,
      "byteOffset": 5464,
      "componentType": 5126,
      "count": 54,
      "max": [
        0.65625,
        0.9790664911270142
      ],
      "min": [
        0.34375,
        0.02093350887298584
      ],
      "type": "VEC2"
    },
    {
      "bufferView": 0,
      "byteOffset": 3984,
      "componentType": 5125,
      "count": 72,
      "type": "SCALAR"
    },
    {
      "bufferView": 2,
      "byteOffset": 17688,
      "componentType": 5126,
      "count": 34,
      "max": [
        0.8957924842834473,
        -1.0525802373886108,
        -1.4403622150421143
      ],
      "min": [
        -0.9074828624725342,
        -3.2239460945129395,
        -3.8674917221069336
      ],
      "type": "VEC3"
    },
    {
      "bufferView": 2,
      "byteOffset": 18096,
      "componentType": 5126,
      "count": 34,
      "max": [
        0.2775454521179199,
        0.957988977432251,
        0.9606985449790955
      ],
      "min": [
        -0.9525240063667297,
        -0.9498943090438843,
        -0.9578267931938171
      ],
      "type": "VEC3"
    },
    {
      "bufferView": 1,
      "byteOffset": 5896,
      "componentType": 5126,
      "count": 34,
      "max": [
        0.65625,
        0.9790664911270142
      ],
      "min": [
        0.34375,
        0.3125
      ],
      "type": "VEC2"
    },
    {
      "bufferView": 0,
      "byteOffset": 4272,
      "componentType": 5125,
      "count": 54,
      "type": "SCALAR"
    }
  ],
  "asset": {
    "extras": {
      "author": "Jezza3D (https://sketchfab.com/Jezza3D)",
      "license": "CC-BY-4.0 (http://creativecommons.org/licenses/by/4.0/)",
      "source": "https://sketchfab.com/3d-models/oculus-quest-and-rift-s-left-controller-498cd0fa8d584cc5a4abd865764bb174",
      "title": "Oculus Quest and Rift S Left Controller"
    },
    "generator": "Sketchfab-12.66.0",
    "version": "2.0"
  },
  "bufferViews": [
    {
      "buffer": 0,
      "byteLength": 4488,
      "name": "floatBufferViews",
      "target": 34963
    },
    {
      "buffer": 0,
      "byteLength": 6168,
      "byteOffset": 4488,
      "byteStride": 8,
      "name": "floatBufferViews",
      "target": 34962
    },
    {
      "buffer": 0,
      "byteLength": 18504,
      "byteOffset": 10656,
      "byteStride": 12,
      "name": "floatBufferViews",
      "target": 34962
    }
  ],
  "buffers": [
    {
      "byteLength": 29160,
      "uri": "scene.bin"
    }
  ],
  "materials": [
    {
      "doubleSided": true,
      "name": "blinn1",
      "pbrMetallicRoughness": {
        "baseColorFactor": [
          0.13195503048780488,
          0.13195503048780488,
          0.13195503048780488,
          1.0
        ],
        "metallicFactor": 0.0,
        "roughnessFactor": 0.1629192073170732
      }
    },
    {
      "doubleSided": true,
      "name": "lambert1",
      "pbrMetallicRoughness": {
        "baseColorFactor": [
          0.0,
          0.0,
          0.0,
          1.0
        ],
        "metallicFactor": 0.0,
        "roughnessFactor": 0.6
      }
    },
    {
      "doubleSided": true,
      "name": "lambert2",
      "pbrMetallicRoughness": {
        "baseColorFactor": [
          0.0,
          0.0,
          0.0,
          1.0
        ],
        "metallicFactor": 0.0,
        "roughnessFactor": 0.6
      }
    }
  ],
  "meshes": [
    {
      "name": "ControllerMain_blinn1_0",
      "primitives": [
        {
          "attributes": {
            "NORMAL": 1,
            "POSITION": 0,
            "TEXCOORD_0": 2
          },
          "indices": 3,
          "material": 0,
          "mode": 4
        }
      ]
    },
    {
      "name": "Top_Button_blinn1_0",
      "primitives": [
        {
          "attributes": {
            "NORMAL": 5,
            "POSITION": 4,
            "TEXCOORD_0": 6
          },
          "indices": 7,
          "material": 0,
          "mode": 4
        }
      ]
    },
    {
      "name": "Bottom_Button_blinn1_0",
      "primitives": [
        {
          "attributes": {
            "NORMAL": 9,
            "POSITION": 8,
            "TEXCOORD_0": 10
          },
          "indices": 11,
          "material": 0,
          "mode": 4
        }
      ]
    },
    {
      "name": "Option_Button_blinn1_0",
      "primitives": [
        {
          "attributes": {
            "NORMAL": 13,
            "POSITION": 12,
            "TEXCOORD_0": 14
          },
          "indices": 15,
          "material": 0,
          "mode": 4
        }
      ]
    },
    {
      "name": "Thumbstick_lambert1_0",
      "primitives": [
        {
          "attributes": {
            "NORMAL": 17,
            "POSITION": 16,
            "TEXCOORD_0": 18
          },
          "indices": 19,
          "material": 1,
          "mode": 4
        }
      ]
    },
    {
      "name": "Trigger_lambert2_0",
      "primitives": [
        {
          "attributes": {
            "NORMAL": 21,
            "POSITION": 20,
            "TEXCOORD_0": 22
          },
          "indices": 23,
          "material": 2,
          "mode": 4
        }
      ]
    },
    {
      "name": "GripTrigger_lambert2_0",
      "primitives": [
        {
          "attributes": {
            "NORMAL": 25,
            "POSITION": 24,
            "TEXCOORD_0": 26
          },
          "indices": 27,
          "material": 2,
          "mode": 4
        }
      ]
    }
  ],
  "nodes": [
    {
      "children": [
        1
      ],
      "matrix": [
        1.0,
        0.0,
        0.0,
        0.0,
        0.0,
        2.220446049250313e-16,
        -1.0,
        0.0,
        0.0,
        1.0,
        2.220446049250313e-16,
        0.0,
        0.0,
        0.0,
        0.0,
        1.0
      ],
      "name": "Sketchfab_model"
    },
    {
      "children": [
        2
      ],
      "matrix": [
        1.0,
        0.0,
        0.0,
        0.0,
        0.0,
        0.0,
        1.0,
        0.0,
        0.0,
        -1.0,
        0.0,
        0.0,
        0.0,
        0.0,
        0.0,
        1.0
      ],
      "name": "4b91ba1e9e2641f19f8b89824c45fdb8.fbx"
    },
    {
      "children": [
        3
      ],
      "name": "RootNode"
    },
    {
      "children": [
        4,
        6,
        8,
        10,
        12,
        14,
        16
      ],
      "name": "LeftQuestController"
    },
    {
      "children": [
        5
      ],
      "name": "ControllerMain"
    },
    {
      "mesh": 0,
      "name": "ControllerMain_blinn1_0"
    },
    {
      "children": [
        7
      ],
      "name": "Top_Button"
    },
    {
      "mesh": 1,
      "name": "Top_Button_blinn1_0"
    },
    {
      "children": [
        9
      ],
      "name": "Bottom_Button"
    },
    {
      "mesh": 2,
      "name": "Bottom_Button_blinn1_0"
    },
    {
      "children": [
        11
      ],
      "name": "Option_Button"
    },
    {
      "mesh": 3,
      "name": "Option_Button_blinn1_0"
    },
    {
      "children": [
        13
      ],
      "name": "Thumbstick"
    },
    {
      "mesh": 4,
      "name": "Thumbstick_lambert1_0"
    },
    {
      "children": [
        15
      ],
      "name": "Trigger"
    },
    {
      "mesh": 5,
      "name": "Trigger_lambert2_0"
    },
    {
      "children": [
        17
      ],
      "name": "GripTrigger"
    },
    {
      "mesh": 6,
      "name": "GripTrigger_lambert2_0"
    }
  ],
  "scene": 0,
  "scenes": [
    {
      "name": "Sketchfab_Scene",
      "nodes": [
        0
      ]
    }
  ]
}
